<svg width="24" height="24" viewBox="0 0 24 24" fill="none" xmlns="http://www.w3.org/2000/svg">
<circle cx="12" cy="12" r="2" stroke="#757575" stroke-width="2"/>
<path d="M5.39856 5.87919L5.89856 5.01317C5.4945 4.77988 4.98282 4.85702 4.66548 5.19905L5.39856 5.87919ZM3.40061 9.34458L2.44506 9.04976C2.3075 9.4956 2.49654 9.97732 2.90061 10.2106L3.40061 9.34458ZM3.3989 14.6564L2.8989 13.7904C2.49444 14.0239 2.30548 14.5063 2.4437 14.9524L3.3989 14.6564ZM5.39889 18.1205L4.66498 18.7998C4.9822 19.1425 5.49443 19.22 5.89889 18.9865L5.39889 18.1205ZM9.99994 20.775L8.99994 20.775C8.99994 21.2416 9.3226 21.6461 9.77749 21.7499L9.99994 20.775ZM14 20.7774L14.2225 21.7523C14.6774 21.6485 15 21.244 15 20.7774L14 20.7774ZM18.6014 18.1208L18.1014 18.9868C18.5055 19.2201 19.0172 19.143 19.3345 18.8009L18.6014 18.1208ZM20.5994 14.6554L21.5549 14.9502C21.6925 14.5044 21.5035 14.0227 21.0994 13.7894L20.5994 14.6554ZM20.6011 9.34352L21.1011 10.2095C21.5055 9.97603 21.6945 9.49366 21.5563 9.04755L20.6011 9.34352ZM18.6011 5.87942L19.335 5.20017C19.0178 4.85742 18.5055 4.77988 18.1011 5.01339L18.6011 5.87942ZM14 3.22499L15 3.22499C15 2.75841 14.6774 2.35384 14.2225 2.25005L14 3.22499ZM9.99994 3.22258L9.77746 2.24764C9.32259 2.35145 8.99995 2.75601 8.99995 3.22258L9.99994 3.22258ZM14 5.07172L13 5.07172L14 5.07172ZM19 13.732L18.5 14.598L19 13.732ZM17 17.1962L16.5 18.0622L17 17.1962ZM4.99992 13.732L5.49992 14.5981L4.99992 13.732ZM6.99994 6.80375L6.49994 7.66978L6.99994 6.80375ZM4.35616 9.6394C4.70592 8.5058 5.3062 7.44901 6.13164 6.55934L4.66548 5.19905C3.63145 6.31356 2.8815 7.63521 2.44506 9.04976L4.35616 9.6394ZM5.0718 16C4.76558 15.4696 4.52743 14.9198 4.3541 14.3604L2.4437 14.9524C2.6608 15.653 2.95857 16.3398 3.33975 17L5.0718 16ZM6.13281 17.4413C5.73503 17.0115 5.37801 16.5304 5.0718 16L3.33975 17C3.72092 17.6602 4.16675 18.2614 4.66498 18.7998L6.13281 17.4413ZM13.7776 19.8025C12.5943 20.0725 11.379 20.0639 10.2224 19.8L9.77749 21.7499C11.2207 22.0792 12.7403 22.0906 14.2225 21.7523L13.7776 19.8025ZM19.6438 14.3606C19.2941 15.4942 18.6938 16.551 17.8684 17.4406L19.3345 18.8009C20.3685 17.6864 21.1185 16.3648 21.5549 14.9502L19.6438 14.3606ZM18.9282 7.99999C19.2344 8.53036 19.4726 9.0801 19.6459 9.63949L21.5563 9.04755C21.3392 8.3469 21.0414 7.66019 20.6603 6.99999L18.9282 7.99999ZM17.8672 6.55867C18.265 6.98847 18.622 7.4696 18.9282 7.99999L20.6603 6.99999C20.2791 6.33976 19.8332 5.73852 19.335 5.20017L17.8672 6.55867ZM10.2224 4.19751C11.4056 3.9275 12.621 3.93603 13.7776 4.19993L14.2225 2.25005C12.7792 1.92074 11.2597 1.90939 9.77746 2.24764L10.2224 4.19751ZM10.9999 5.0717L10.9999 3.22258L8.99995 3.22258L8.99994 5.0717L10.9999 5.0717ZM7.49995 5.93773L5.89856 5.01317L4.89856 6.74522L6.49994 7.66978L7.49995 5.93773ZM4.49992 12.866L2.8989 13.7904L3.8989 15.5224L5.49992 14.5981L4.49992 12.866ZM5.49992 9.40192L3.90061 8.47856L2.90061 10.2106L4.49992 11.134L5.49992 9.40192ZM10.9999 20.775L10.9999 18.9282L8.99994 18.9282L8.99994 20.775L10.9999 20.775ZM6.49994 16.3301L4.89889 17.2545L5.89889 18.9865L7.49994 18.0622L6.49994 16.3301ZM19.1014 17.2548L17.5 16.3302L16.5 18.0622L18.1014 18.9868L19.1014 17.2548ZM15 20.7774L15 18.9283L13 18.9283L13 20.7774L15 20.7774ZM20.1011 8.4775L18.5 9.40187L19.5 11.1339L21.1011 10.2095L20.1011 8.4775ZM21.0994 13.7894L19.5 12.866L18.5 14.598L20.0994 15.5214L21.0994 13.7894ZM15 5.07172L15 3.22499L13 3.22499L13 5.07172L15 5.07172ZM18.1011 5.01339L16.5 5.93775L17.5 7.6698L19.1011 6.74544L18.1011 5.01339ZM13 5.07172C13 7.38112 15.5 8.8245 17.5 7.6698L16.5 5.93775C15.8334 6.32265 15 5.84152 15 5.07172L13 5.07172ZM18.5 9.40187C16.5 10.5566 16.5 13.4433 18.5 14.598L19.5 12.866C18.8334 12.4811 18.8334 11.5188 19.5 11.1339L18.5 9.40187ZM17.5 16.3302C15.5 15.1755 13 16.6189 13 18.9283L15 18.9283C15 18.1585 15.8334 17.6773 16.5 18.0622L17.5 16.3302ZM10.9999 18.9282C10.9999 16.6188 8.49994 15.1754 6.49994 16.3301L7.49994 18.0622C8.16661 17.6773 8.99994 18.1584 8.99994 18.9282L10.9999 18.9282ZM5.49992 14.5981C7.49992 13.4434 7.49992 10.5566 5.49992 9.40192L4.49992 11.134C5.16659 11.5189 5.16658 12.4811 4.49992 12.866L5.49992 14.5981ZM8.99994 5.0717C8.99995 5.8415 8.16661 6.32263 7.49995 5.93773L6.49994 7.66978C8.49994 8.82448 10.9999 7.3811 10.9999 5.0717L8.99994 5.0717Z" fill="#757575"/>
</svg>
