<svg width="21" height="20" viewBox="0 0 21 20" fill="none" xmlns="http://www.w3.org/2000/svg">
<path fill-rule="evenodd" clip-rule="evenodd" d="M6.08871 1.89506C6.42929 1.89506 6.70538 2.17115 6.70538 2.51172V3.33395H13.6943V2.51172C13.6943 2.17115 13.9704 1.89506 14.3109 1.89506C14.6515 1.89506 14.9276 2.17115 14.9276 2.51172V3.33395H15.9554C17.3177 3.33395 18.422 4.43831 18.422 5.80061V15.6673C18.422 17.0296 17.3177 18.1339 15.9554 18.1339H4.44427C3.08196 18.1339 1.9776 17.0296 1.9776 15.6673V5.80061C1.9776 4.43831 3.08196 3.33395 4.44427 3.33395H5.47204V2.51172C5.47204 2.17115 5.74814 1.89506 6.08871 1.89506ZM13.6943 4.56728V5.80061C13.6943 6.14119 13.9704 6.41728 14.3109 6.41728C14.6515 6.41728 14.9276 6.14119 14.9276 5.80061V4.56728H15.9554C16.6365 4.56728 17.1887 5.11946 17.1887 5.80061V8.47284H3.21093V5.80061C3.21093 5.11946 3.76312 4.56728 4.44427 4.56728H5.47204V5.80061C5.47204 6.14119 5.74814 6.41728 6.08871 6.41728C6.42929 6.41728 6.70538 6.14119 6.70538 5.80061V4.56728H13.6943ZM3.21093 9.70617V15.6673C3.21093 16.3484 3.76312 16.9006 4.44427 16.9006H15.9554C16.6365 16.9006 17.1887 16.3484 17.1887 15.6673V9.70617H3.21093Z" fill="#5531FB"/>
</svg>
