<svg width="21" height="21" viewBox="0 0 21 21" fill="none" xmlns="http://www.w3.org/2000/svg">
<path fill-rule="evenodd" clip-rule="evenodd" d="M10.1998 2.36123C10.5404 2.36123 10.8165 2.63732 10.8165 2.9779V3.82864C13.9571 4.12065 16.4571 6.6206 16.7491 9.76123H17.5998C17.9404 9.76123 18.2165 10.0373 18.2165 10.3779C18.2165 10.7185 17.9404 10.9946 17.5998 10.9946H16.7491C16.4571 14.1352 13.9571 16.6351 10.8165 16.9271V17.7779C10.8165 18.1185 10.5404 18.3946 10.1998 18.3946C9.85926 18.3946 9.58317 18.1185 9.58317 17.7779V16.9271C6.44254 16.6351 3.94259 14.1352 3.65058 10.9946H2.79983C2.45926 10.9946 2.18317 10.7185 2.18317 10.3779C2.18317 10.0373 2.45926 9.76123 2.79983 9.76123H3.65058C3.94259 6.6206 6.44254 4.12065 9.58317 3.82864V2.9779C9.58317 2.63732 9.85926 2.36123 10.1998 2.36123ZM10.1998 15.7223C13.1515 15.7223 15.5443 13.3296 15.5443 10.3779C15.5443 7.42624 13.1515 5.03345 10.1998 5.03345C7.24818 5.03345 4.85539 7.42624 4.85539 10.3779C4.85539 13.3296 7.24818 15.7223 10.1998 15.7223Z" fill="#FC6B21"/>
<path fill-rule="evenodd" clip-rule="evenodd" d="M10.1998 11.6112C10.881 11.6112 11.4332 11.059 11.4332 10.3779C11.4332 9.69674 10.881 9.14456 10.1998 9.14456C9.51867 9.14456 8.96649 9.69674 8.96649 10.3779C8.96649 11.059 9.51867 11.6112 10.1998 11.6112ZM10.1998 12.8446C11.5621 12.8446 12.6665 11.7402 12.6665 10.3779C12.6665 9.01559 11.5621 7.91123 10.1998 7.91123C8.83752 7.91123 7.73315 9.01559 7.73315 10.3779C7.73315 11.7402 8.83752 12.8446 10.1998 12.8446Z" fill="#FC6B21"/>
</svg>
