<svg width="30" height="30" viewBox="0 0 30 30" fill="none" xmlns="http://www.w3.org/2000/svg">
<path fill-rule="evenodd" clip-rule="evenodd" d="M18.2003 17.9501H18.2753C20.7312 16.866 22.6899 14.8984 23.7628 12.4376V17.8876C23.7728 21.3808 21.7041 24.5453 18.5003 25.9376H18.4128C17.3535 26.3861 16.2131 26.6116 15.0628 26.6001C13.9509 26.6031 12.8498 26.382 11.8253 25.9501L11.5003 25.8126C8.30346 24.4751 6.23006 21.3403 6.2503 17.8751V17.6501C6.27428 15.8755 6.99748 14.182 8.2628 12.9376L8.4878 12.7251C10.4769 10.777 12.1173 8.50239 13.3378 6.00006L15.0503 2.50006C15.0503 2.50006 16.8253 5.00006 18.4753 7.50006C20.4876 10.4858 19.8183 14.5233 16.9503 16.7001H16.8878H16.8003C16.5026 17.0748 16.5349 17.6136 16.8753 17.9501C17.0177 18.0703 17.2021 18.1288 17.3878 18.1126C17.6654 18.1009 17.9395 18.0461 18.2003 17.9501ZM17.6503 24.2001H17.7378V24.1876C20.2371 23.0921 21.8581 20.6289 21.8753 17.9001C21.0323 18.642 20.0683 19.2339 19.0253 19.6501L18.8628 19.7126C18.3923 19.8958 17.8927 19.9931 17.3878 20.0001C16.7036 20.0242 16.0394 19.7667 15.5503 19.2876C14.5291 18.2783 14.4321 16.6617 15.3253 15.5376C15.4344 15.4013 15.5604 15.2794 15.7003 15.1751H15.7878C17.8956 13.6028 18.3915 10.6495 16.9128 8.47506C16.3753 7.67506 15.8378 6.87506 15.3378 6.16256L15.0253 6.81256C13.7023 9.47904 11.9355 11.9011 9.80031 13.9751L9.57531 14.1876C8.66741 15.0835 8.14685 16.2997 8.12531 17.5751V17.8126C8.09144 20.5365 9.71323 23.0088 12.2253 24.0626L12.5503 24.2001C14.1799 24.8919 16.0207 24.8919 17.6503 24.2001Z" fill="#0B1C3F"/>
</svg>
