<svg width="151" height="389" viewBox="0 0 151 389" fill="none" xmlns="http://www.w3.org/2000/svg">
<path d="M214.016 65.9493H0.0131912V72.9172H214.016V65.9493Z" fill="#D56C2B"/>
<path d="M214.016 51.0577H0.0131912V58.0256H214.016V51.0577Z" fill="#D56C2B"/>
<path d="M214.016 36.1656H0.0131912V43.1335H214.016V36.1656Z" fill="#D56C2B"/>
<path d="M214.016 21.2735H0.0131912V28.2414H214.016V21.2735Z" fill="#D56C2B"/>
<path d="M172.312 -7.99994H86.1558V78.1564H172.312V-7.99994Z" fill="#503094"/>
<path d="M86.1558 78.1564H172.312L86.1558 -7.99994V78.1564Z" fill="#F6C02F"/>
<path d="M93.8306 78.1563H98.1134V3.9451L93.8306 -0.33783V78.1563Z" fill="white"/>
<path d="M109.194 15.0388L104.911 10.7559V78.1564H109.194V15.0388Z" fill="white"/>
<path d="M120.288 26.1194L116.005 21.8365V78.1564H120.288V26.1194Z" fill="white"/>
<path d="M131.382 37.2132L127.099 32.9302V78.1564H131.382V37.2132Z" fill="white"/>
<path d="M142.475 48.3069L138.192 44.024V78.1564H142.475V48.3069Z" fill="white"/>
<path d="M153.569 59.4002L149.273 55.1172V78.156H153.569V59.4002Z" fill="white"/>
<path d="M172.312 78.1558H86.1558V164.312H172.312V78.1558Z" fill="#FAA14E"/>
<path d="M86.1558 78.1558H172.312L86.1558 164.299V78.1558Z" fill="#F9FBFF"/>
<path d="M-7.62939e-06 164.3H86.1562L86.1563 78.1436L-7.62939e-06 78.1436L-7.62939e-06 164.3Z" fill="#503094"/>
<path d="M43.0911 164.299L86.1655 121.224L43.091 78.1496L0.0165448 121.224L43.0911 164.299Z" fill="white"/>
<path d="M43.0912 140.423L62.29 121.224L43.0913 102.025L23.8925 121.224L43.0912 140.423Z" fill="#503094"/>
<path d="M86.1558 164.299V250.455H172.312V164.299H86.1558ZM136.896 215.039L129.234 249.84L121.572 215.039L86.7714 207.377L121.572 199.715L129.234 164.914L136.896 199.715L171.696 207.377L136.896 215.039Z" fill="#503094"/>
<path d="M172.312 250.456H86.1558L223.969 388.269L298.377 376.52L172.312 250.456Z" fill="#F6C02F"/>
<path d="M0.0131836 164.299L86.1563 250.455V164.299H0.0131836Z" fill="white"/>
<path d="M12.9009 177.188L73.268 237.568V177.188H12.9009Z" fill="#F6C02F"/>
<path d="M148.684 101.784H109.797V140.671H148.684V101.784Z" fill="#87DAFC"/>
</svg>
