<svg width="21" height="21" viewBox="0 0 21 21" fill="none" xmlns="http://www.w3.org/2000/svg">
<path fill-rule="evenodd" clip-rule="evenodd" d="M10.1998 12.6779C11.3351 12.6779 12.2554 11.7576 12.2554 10.6223C12.2554 9.48709 11.3351 8.56678 10.1998 8.56678C9.06459 8.56678 8.14428 9.48709 8.14428 10.6223C8.14428 11.7576 9.06459 12.6779 10.1998 12.6779ZM13.4887 10.6223C13.4887 12.4387 12.0162 13.9112 10.1998 13.9112C8.38344 13.9112 6.91095 12.4387 6.91095 10.6223C6.91095 8.80594 8.38344 7.33345 10.1998 7.33345C12.0162 7.33345 13.4887 8.80594 13.4887 10.6223Z" fill="#1FB9FC"/>
<path fill-rule="evenodd" clip-rule="evenodd" d="M9.29946 3.09234L8.98081 4.0483C8.71212 4.85437 8.12251 5.42538 7.50489 5.76928C7.45222 5.7986 7.40008 5.82876 7.34847 5.85974C6.74113 6.22434 5.95071 6.45012 5.11729 6.27957L4.12916 6.07737C3.9558 6.04189 3.77919 6.12133 3.69071 6.27458L3.18012 7.15894C3.09165 7.31218 3.11116 7.50485 3.22856 7.63725L3.8987 8.39297C4.46114 9.02724 4.66255 9.82213 4.65132 10.5304C4.65035 10.5917 4.65035 10.653 4.65132 10.7142C4.66254 11.4225 4.46113 12.2174 3.89869 12.8517L3.22856 13.6074C3.11116 13.7398 3.09165 13.9324 3.18012 14.0857L3.69071 14.97C3.77919 15.1233 3.9558 15.2027 4.12916 15.1673L5.11722 14.9651C5.95065 14.7945 6.74108 15.0203 7.34843 15.3849C7.40005 15.4159 7.45221 15.4461 7.50489 15.4754C8.12251 15.8193 8.71212 16.3903 8.98081 17.1964L9.29946 18.1523C9.35542 18.3202 9.51252 18.4335 9.68948 18.4335H10.7106C10.8876 18.4335 11.0447 18.3202 11.1007 18.1523L11.4193 17.1964C11.688 16.3903 12.2776 15.8193 12.8952 15.4754C12.9479 15.4461 13.0001 15.4159 13.0517 15.3849C13.659 15.0203 14.4495 14.7945 15.2829 14.9651L16.2709 15.1673C16.4443 15.2027 16.6209 15.1233 16.7094 14.97L17.22 14.0857C17.3084 13.9324 17.2889 13.7398 17.1715 13.6074L16.5014 12.8517C15.939 12.2174 15.7376 11.4225 15.7488 10.7143C15.7498 10.653 15.7498 10.5917 15.7488 10.5304C15.7376 9.82209 15.939 9.0272 16.5014 8.39292L17.1715 7.63725C17.2889 7.50485 17.3084 7.31219 17.22 7.15894L16.7094 6.27458C16.6209 6.12133 16.4443 6.04189 16.2709 6.07737L15.2828 6.27957C14.4494 6.45012 13.659 6.22434 13.0516 5.85974C13 5.82876 12.9479 5.7986 12.8952 5.76928C12.2776 5.42538 11.688 4.85437 11.4193 4.0483L11.1007 3.09233C11.0447 2.92446 10.8876 2.81123 10.7106 2.81123H9.68948C9.51252 2.81123 9.35542 2.92446 9.29946 3.09234ZM7.81076 3.65829C7.66092 4.10782 7.31889 4.4612 6.90489 4.69172C6.8405 4.72758 6.77675 4.76445 6.71367 4.80232C6.30692 5.0465 5.82933 5.16639 5.36455 5.07128L4.37642 4.86907C3.68297 4.72717 2.97652 5.04492 2.62261 5.65791L2.11203 6.54227C1.75812 7.15526 1.83616 7.92594 2.30578 8.45553L2.97591 9.21125C3.28993 9.56537 3.42564 10.0376 3.41814 10.5109C3.41697 10.5851 3.41697 10.6595 3.41814 10.7338C3.42564 11.207 3.28993 11.6793 2.97591 12.0334L2.30578 12.7891C1.83616 13.3187 1.75812 14.0894 2.11203 14.7024L2.62261 15.5867C2.97652 16.1997 3.68297 16.5175 4.37642 16.3756L5.36448 16.1734C5.82927 16.0782 6.30687 16.1981 6.71362 16.4423C6.77672 16.4802 6.84048 16.5171 6.90489 16.553C7.31889 16.7835 7.66092 17.1369 7.81076 17.5864L8.12942 18.5424C8.35325 19.2139 8.98166 19.6668 9.68948 19.6668H10.7106C11.4185 19.6668 12.0469 19.2139 12.2707 18.5424L12.5894 17.5864C12.7392 17.1369 13.0812 16.7835 13.4952 16.553C13.5596 16.5171 13.6234 16.4802 13.6865 16.4423C14.0932 16.1981 14.5708 16.0783 15.0356 16.1734L16.0237 16.3755C16.7171 16.5175 17.4236 16.1997 17.7775 15.5867L18.288 14.7024C18.642 14.0894 18.5639 13.3187 18.0943 12.7891L17.4242 12.0334C17.1102 11.6793 16.9745 11.207 16.982 10.7338C16.9832 10.6595 16.9832 10.5851 16.982 10.5108C16.9745 10.0376 17.1102 9.56533 17.4242 9.2112L18.0943 8.45553C18.5639 7.92594 18.642 7.15526 18.2881 6.54227L17.7775 5.65791C17.4236 5.04492 16.7171 4.72717 16.0237 4.86908L15.0356 5.07127C14.5708 5.16638 14.0932 5.04649 13.6864 4.80231C13.6234 4.76445 13.5596 4.72758 13.4952 4.69172C13.0812 4.4612 12.7392 4.10782 12.5894 3.65829L12.2707 2.70232C12.0469 2.03082 11.4185 1.5779 10.7106 1.5779H9.68948C8.98166 1.5779 8.35325 2.03083 8.12942 2.70232L7.81076 3.65829Z" fill="#1FB9FC"/>
</svg>
